<svg xmlns="http://www.w3.org/2000/svg" version="1.1" xmlns:xlink="http://www.w3.org/1999/xlink" xmlns:svgjs="http://svgjs.com/svgjs" width="1440" height="560" preserveAspectRatio="none" viewBox="0 0 1440 560"><g mask="url(&quot;#SvgjsMask1038&quot;)" fill="none"><path d="M-63.87 376.78L-63.87 376.78" stroke="rgba(255, 201, 101, 0.65)" stroke-width="1.5"></path><path d="M-63.87 376.78L39.72 408.02" stroke="rgba(255, 201, 101, 0.65)" stroke-width="1.5"></path><path d="M-63.87 376.78L-68.37 532.7" stroke="rgba(255, 201, 101, 0.65)" stroke-width="1.5"></path><path d="M-63.87 376.78L68.03 542.13" stroke="rgba(255, 201, 101, 0.65)" stroke-width="1.5"></path><path d="M-63.87 376.78L210.85 384.94" stroke="rgba(255, 201, 101, 0.65)" stroke-width="1.5"></path><path d="M-63.87 376.78L260.44 499.54" stroke="rgba(255, 201, 101, 0.65)" stroke-width="1.5"></path><path d="M-68.37 532.7L-68.37 532.7" stroke="rgba(255, 201, 101, 0.65)" stroke-width="1.5"></path><path d="M-68.37 532.7L68.03 542.13" stroke="rgba(255, 201, 101, 0.65)" stroke-width="1.5"></path><path d="M-68.37 532.7L39.72 408.02" stroke="rgba(255, 201, 101, 0.65)" stroke-width="1.5"></path><path d="M39.72 408.02L39.72 408.02" stroke="rgba(255, 201, 101, 0.65)" stroke-width="1.5"></path><path d="M39.72 408.02L68.03 542.13" stroke="rgba(255, 201, 101, 0.65)" stroke-width="1.5"></path><path d="M68.03 542.13L68.03 542.13" stroke="rgba(255, 201, 101, 0.65)" stroke-width="1.5"></path><path d="M87.15 700.27L87.15 700.27" stroke="rgba(255, 201, 101, 0.65)" stroke-width="1.5"></path><path d="M87.15 700.27L225.3 675.82" stroke="rgba(255, 201, 101, 0.65)" stroke-width="1.5"></path><path d="M87.15 700.27L68.03 542.13" stroke="rgba(255, 201, 101, 0.65)" stroke-width="1.5"></path><path d="M87.15 700.27L-68.37 532.7" stroke="rgba(255, 201, 101, 0.65)" stroke-width="1.5"></path><path d="M87.15 700.27L260.44 499.54" stroke="rgba(255, 201, 101, 0.65)" stroke-width="1.5"></path><path d="M210.85 384.94L210.85 384.94" stroke="rgba(255, 201, 101, 0.65)" stroke-width="1.5"></path><path d="M210.85 384.94L260.44 499.54" stroke="rgba(255, 201, 101, 0.65)" stroke-width="1.5"></path><path d="M260.44 499.54L260.44 499.54" stroke="rgba(255, 201, 101, 0.65)" stroke-width="1.5"></path><path d="M260.44 499.54L393.72 537.44" stroke="rgba(255, 201, 101, 0.65)" stroke-width="1.5"></path><path d="M225.3 675.82L225.3 675.82" stroke="rgba(255, 201, 101, 0.65)" stroke-width="1.5"></path><path d="M225.3 675.82L400.73 677.66" stroke="rgba(255, 201, 101, 0.65)" stroke-width="1.5"></path><path d="M225.3 675.82L260.44 499.54" stroke="rgba(255, 201, 101, 0.65)" stroke-width="1.5"></path><path d="M393.72 537.44L393.72 537.44" stroke="rgba(255, 201, 101, 0.65)" stroke-width="1.5"></path><path d="M393.72 537.44L517.85 539.54" stroke="rgba(255, 201, 101, 0.65)" stroke-width="1.5"></path><path d="M393.72 537.44L400.73 677.66" stroke="rgba(255, 201, 101, 0.65)" stroke-width="1.5"></path><path d="M393.72 537.44L491.88 645.29" stroke="rgba(255, 201, 101, 0.65)" stroke-width="1.5"></path><path d="M393.72 537.44L225.3 675.82" stroke="rgba(255, 201, 101, 0.65)" stroke-width="1.5"></path><path d="M400.73 677.66L400.73 677.66" stroke="rgba(255, 201, 101, 0.65)" stroke-width="1.5"></path><path d="M400.73 677.66L491.88 645.29" stroke="rgba(255, 201, 101, 0.65)" stroke-width="1.5"></path><path d="M550.27 350.09L550.27 350.09" stroke="rgba(255, 201, 101, 0.65)" stroke-width="1.5"></path><path d="M550.27 350.09L688.74 410.42" stroke="rgba(255, 201, 101, 0.65)" stroke-width="1.5"></path><path d="M550.27 350.09L681.41 222.67" stroke="rgba(255, 201, 101, 0.65)" stroke-width="1.5"></path><path d="M517.85 539.54L517.85 539.54" stroke="rgba(255, 201, 101, 0.65)" stroke-width="1.5"></path><path d="M517.85 539.54L491.88 645.29" stroke="rgba(255, 201, 101, 0.65)" stroke-width="1.5"></path><path d="M517.85 539.54L681.54 503.31" stroke="rgba(255, 201, 101, 0.65)" stroke-width="1.5"></path><path d="M517.85 539.54L400.73 677.66" stroke="rgba(255, 201, 101, 0.65)" stroke-width="1.5"></path><path d="M517.85 539.54L550.27 350.09" stroke="rgba(255, 201, 101, 0.65)" stroke-width="1.5"></path><path d="M491.88 645.29L491.88 645.29" stroke="rgba(255, 201, 101, 0.65)" stroke-width="1.5"></path><path d="M491.88 645.29L654.41 680.72" stroke="rgba(255, 201, 101, 0.65)" stroke-width="1.5"></path><path d="M491.88 645.29L681.54 503.31" stroke="rgba(255, 201, 101, 0.65)" stroke-width="1.5"></path><path d="M681.41 222.67L681.41 222.67" stroke="rgba(255, 201, 101, 0.65)" stroke-width="1.5"></path><path d="M681.41 222.67L790.14 203.73" stroke="rgba(255, 201, 101, 0.65)" stroke-width="1.5"></path><path d="M681.41 222.67L688.74 410.42" stroke="rgba(255, 201, 101, 0.65)" stroke-width="1.5"></path><path d="M681.41 222.67L961.63 218.78" stroke="rgba(255, 201, 101, 0.65)" stroke-width="1.5"></path><path d="M688.74 410.42L688.74 410.42" stroke="rgba(255, 201, 101, 0.65)" stroke-width="1.5"></path><path d="M688.74 410.42L681.54 503.31" stroke="rgba(255, 201, 101, 0.65)" stroke-width="1.5"></path><path d="M681.54 503.31L681.54 503.31" stroke="rgba(255, 201, 101, 0.65)" stroke-width="1.5"></path><path d="M681.54 503.31L654.41 680.72" stroke="rgba(255, 201, 101, 0.65)" stroke-width="1.5"></path><path d="M654.41 680.72L654.41 680.72" stroke="rgba(255, 201, 101, 0.65)" stroke-width="1.5"></path><path d="M654.41 680.72L517.85 539.54" stroke="rgba(255, 201, 101, 0.65)" stroke-width="1.5"></path><path d="M790.14 203.73L790.14 203.73" stroke="rgba(255, 201, 101, 0.65)" stroke-width="1.5"></path><path d="M790.14 203.73L961.63 218.78" stroke="rgba(255, 201, 101, 0.65)" stroke-width="1.5"></path><path d="M854.19 703.87L854.19 703.87" stroke="rgba(255, 201, 101, 0.65)" stroke-width="1.5"></path><path d="M854.19 703.87L999.83 684.11" stroke="rgba(255, 201, 101, 0.65)" stroke-width="1.5"></path><path d="M854.19 703.87L654.41 680.72" stroke="rgba(255, 201, 101, 0.65)" stroke-width="1.5"></path><path d="M854.19 703.87L960.22 490.02" stroke="rgba(255, 201, 101, 0.65)" stroke-width="1.5"></path><path d="M951.08 -55.1L951.08 -55.1" stroke="rgba(255, 201, 101, 0.65)" stroke-width="1.5"></path><path d="M951.08 -55.1L968.55 82.13" stroke="rgba(255, 201, 101, 0.65)" stroke-width="1.5"></path><path d="M951.08 -55.1L1156.09 -100.73" stroke="rgba(255, 201, 101, 0.65)" stroke-width="1.5"></path><path d="M951.08 -55.1L1115.41 87.04" stroke="rgba(255, 201, 101, 0.65)" stroke-width="1.5"></path><path d="M951.08 -55.1L961.63 218.78" stroke="rgba(255, 201, 101, 0.65)" stroke-width="1.5"></path><path d="M951.08 -55.1L1244.2 -42.56" stroke="rgba(255, 201, 101, 0.65)" stroke-width="1.5"></path><path d="M951.08 -55.1L790.14 203.73" stroke="rgba(255, 201, 101, 0.65)" stroke-width="1.5"></path><path d="M968.55 82.13L968.55 82.13" stroke="rgba(255, 201, 101, 0.65)" stroke-width="1.5"></path><path d="M968.55 82.13L961.63 218.78" stroke="rgba(255, 201, 101, 0.65)" stroke-width="1.5"></path><path d="M968.55 82.13L1115.41 87.04" stroke="rgba(255, 201, 101, 0.65)" stroke-width="1.5"></path><path d="M968.55 82.13L790.14 203.73" stroke="rgba(255, 201, 101, 0.65)" stroke-width="1.5"></path><path d="M961.63 218.78L961.63 218.78" stroke="rgba(255, 201, 101, 0.65)" stroke-width="1.5"></path><path d="M961.63 218.78L968.76 376" stroke="rgba(255, 201, 101, 0.65)" stroke-width="1.5"></path><path d="M961.63 218.78L1119.6 244.87" stroke="rgba(255, 201, 101, 0.65)" stroke-width="1.5"></path><path d="M968.76 376L968.76 376" stroke="rgba(255, 201, 101, 0.65)" stroke-width="1.5"></path><path d="M968.76 376L960.22 490.02" stroke="rgba(255, 201, 101, 0.65)" stroke-width="1.5"></path><path d="M968.76 376L1131.8 375.27" stroke="rgba(255, 201, 101, 0.65)" stroke-width="1.5"></path><path d="M960.22 490.02L960.22 490.02" stroke="rgba(255, 201, 101, 0.65)" stroke-width="1.5"></path><path d="M960.22 490.02L1129.49 555.14" stroke="rgba(255, 201, 101, 0.65)" stroke-width="1.5"></path><path d="M960.22 490.02L999.83 684.11" stroke="rgba(255, 201, 101, 0.65)" stroke-width="1.5"></path><path d="M960.22 490.02L1131.8 375.27" stroke="rgba(255, 201, 101, 0.65)" stroke-width="1.5"></path><path d="M999.83 684.11L999.83 684.11" stroke="rgba(255, 201, 101, 0.65)" stroke-width="1.5"></path><path d="M999.83 684.11L1140.55 675.2" stroke="rgba(255, 201, 101, 0.65)" stroke-width="1.5"></path><path d="M1156.09 -100.73L1156.09 -100.73" stroke="rgba(255, 201, 101, 0.65)" stroke-width="1.5"></path><path d="M1156.09 -100.73L1244.2 -42.56" stroke="rgba(255, 201, 101, 0.65)" stroke-width="1.5"></path><path d="M1156.09 -100.73L1115.41 87.04" stroke="rgba(255, 201, 101, 0.65)" stroke-width="1.5"></path><path d="M1156.09 -100.73L1279.09 67.99" stroke="rgba(255, 201, 101, 0.65)" stroke-width="1.5"></path><path d="M1115.41 87.04L1115.41 87.04" stroke="rgba(255, 201, 101, 0.65)" stroke-width="1.5"></path><path d="M1115.41 87.04L1119.6 244.87" stroke="rgba(255, 201, 101, 0.65)" stroke-width="1.5"></path><path d="M1119.6 244.87L1119.6 244.87" stroke="rgba(255, 201, 101, 0.65)" stroke-width="1.5"></path><path d="M1119.6 244.87L1242 243.91" stroke="rgba(255, 201, 101, 0.65)" stroke-width="1.5"></path><path d="M1119.6 244.87L1131.8 375.27" stroke="rgba(255, 201, 101, 0.65)" stroke-width="1.5"></path><path d="M1131.8 375.27L1131.8 375.27" stroke="rgba(255, 201, 101, 0.65)" stroke-width="1.5"></path><path d="M1131.8 375.27L1242 243.91" stroke="rgba(255, 201, 101, 0.65)" stroke-width="1.5"></path><path d="M1131.8 375.27L1308.58 352.13" stroke="rgba(255, 201, 101, 0.65)" stroke-width="1.5"></path><path d="M1129.49 555.14L1129.49 555.14" stroke="rgba(255, 201, 101, 0.65)" stroke-width="1.5"></path><path d="M1129.49 555.14L1140.55 675.2" stroke="rgba(255, 201, 101, 0.65)" stroke-width="1.5"></path><path d="M1129.49 555.14L1131.8 375.27" stroke="rgba(255, 201, 101, 0.65)" stroke-width="1.5"></path><path d="M1129.49 555.14L999.83 684.11" stroke="rgba(255, 201, 101, 0.65)" stroke-width="1.5"></path><path d="M1129.49 555.14L1271.21 694.98" stroke="rgba(255, 201, 101, 0.65)" stroke-width="1.5"></path><path d="M1129.49 555.14L968.76 376" stroke="rgba(255, 201, 101, 0.65)" stroke-width="1.5"></path><path d="M1140.55 675.2L1140.55 675.2" stroke="rgba(255, 201, 101, 0.65)" stroke-width="1.5"></path><path d="M1140.55 675.2L1271.21 694.98" stroke="rgba(255, 201, 101, 0.65)" stroke-width="1.5"></path><path d="M1244.2 -42.56L1244.2 -42.56" stroke="rgba(255, 201, 101, 0.65)" stroke-width="1.5"></path><path d="M1244.2 -42.56L1279.09 67.99" stroke="rgba(255, 201, 101, 0.65)" stroke-width="1.5"></path><path d="M1244.2 -42.56L1115.41 87.04" stroke="rgba(255, 201, 101, 0.65)" stroke-width="1.5"></path><path d="M1279.09 67.99L1279.09 67.99" stroke="rgba(255, 201, 101, 0.65)" stroke-width="1.5"></path><path d="M1279.09 67.99L1115.41 87.04" stroke="rgba(255, 201, 101, 0.65)" stroke-width="1.5"></path><path d="M1279.09 67.99L1242 243.91" stroke="rgba(255, 201, 101, 0.65)" stroke-width="1.5"></path><path d="M1279.09 67.99L1407.69 231.79" stroke="rgba(255, 201, 101, 0.65)" stroke-width="1.5"></path><path d="M1279.09 67.99L1460.94 -38.39" stroke="rgba(255, 201, 101, 0.65)" stroke-width="1.5"></path><path d="M1242 243.91L1242 243.91" stroke="rgba(255, 201, 101, 0.65)" stroke-width="1.5"></path><path d="M1242 243.91L1308.58 352.13" stroke="rgba(255, 201, 101, 0.65)" stroke-width="1.5"></path><path d="M1242 243.91L1407.69 231.79" stroke="rgba(255, 201, 101, 0.65)" stroke-width="1.5"></path><path d="M1308.58 352.13L1308.58 352.13" stroke="rgba(255, 201, 101, 0.65)" stroke-width="1.5"></path><path d="M1308.58 352.13L1399.46 355.15" stroke="rgba(255, 201, 101, 0.65)" stroke-width="1.5"></path><path d="M1308.58 352.13L1407.69 231.79" stroke="rgba(255, 201, 101, 0.65)" stroke-width="1.5"></path><path d="M1271.21 694.98L1271.21 694.98" stroke="rgba(255, 201, 101, 0.65)" stroke-width="1.5"></path><path d="M1271.21 694.98L1444.19 697.71" stroke="rgba(255, 201, 101, 0.65)" stroke-width="1.5"></path><path d="M1271.21 694.98L999.83 684.11" stroke="rgba(255, 201, 101, 0.65)" stroke-width="1.5"></path><path d="M1271.21 694.98L1548.72 537.24" stroke="rgba(255, 201, 101, 0.65)" stroke-width="1.5"></path><path d="M1271.21 694.98L1590.77 654.6" stroke="rgba(255, 201, 101, 0.65)" stroke-width="1.5"></path><path d="M1460.94 -38.39L1460.94 -38.39" stroke="rgba(255, 201, 101, 0.65)" stroke-width="1.5"></path><path d="M1460.94 -38.39L1556.15 45.74" stroke="rgba(255, 201, 101, 0.65)" stroke-width="1.5"></path><path d="M1460.94 -38.39L1578.28 -109.64" stroke="rgba(255, 201, 101, 0.65)" stroke-width="1.5"></path><path d="M1460.94 -38.39L1244.2 -42.56" stroke="rgba(255, 201, 101, 0.65)" stroke-width="1.5"></path><path d="M1460.94 -38.39L1407.69 231.79" stroke="rgba(255, 201, 101, 0.65)" stroke-width="1.5"></path><path d="M1407.69 231.79L1407.69 231.79" stroke="rgba(255, 201, 101, 0.65)" stroke-width="1.5"></path><path d="M1407.69 231.79L1399.46 355.15" stroke="rgba(255, 201, 101, 0.65)" stroke-width="1.5"></path><path d="M1407.69 231.79L1565.98 228.32" stroke="rgba(255, 201, 101, 0.65)" stroke-width="1.5"></path><path d="M1399.46 355.15L1399.46 355.15" stroke="rgba(255, 201, 101, 0.65)" stroke-width="1.5"></path><path d="M1399.46 355.15L1242 243.91" stroke="rgba(255, 201, 101, 0.65)" stroke-width="1.5"></path><path d="M1444.19 697.71L1444.19 697.71" stroke="rgba(255, 201, 101, 0.65)" stroke-width="1.5"></path><path d="M1444.19 697.71L1590.77 654.6" stroke="rgba(255, 201, 101, 0.65)" stroke-width="1.5"></path><path d="M1444.19 697.71L1548.72 537.24" stroke="rgba(255, 201, 101, 0.65)" stroke-width="1.5"></path><path d="M1444.19 697.71L1140.55 675.2" stroke="rgba(255, 201, 101, 0.65)" stroke-width="1.5"></path><path d="M1444.19 697.71L1399.46 355.15" stroke="rgba(255, 201, 101, 0.65)" stroke-width="1.5"></path><path d="M1444.19 697.71L1129.49 555.14" stroke="rgba(255, 201, 101, 0.65)" stroke-width="1.5"></path><path d="M1578.28 -109.64L1578.28 -109.64" stroke="rgba(255, 201, 101, 0.65)" stroke-width="1.5"></path><path d="M1578.28 -109.64L1556.15 45.74" stroke="rgba(255, 201, 101, 0.65)" stroke-width="1.5"></path><path d="M1556.15 45.74L1556.15 45.74" stroke="rgba(255, 201, 101, 0.65)" stroke-width="1.5"></path><path d="M1556.15 45.74L1565.98 228.32" stroke="rgba(255, 201, 101, 0.65)" stroke-width="1.5"></path><path d="M1565.98 228.32L1565.98 228.32" stroke="rgba(255, 201, 101, 0.65)" stroke-width="1.5"></path><path d="M1565.98 228.32L1601.67 354.4" stroke="rgba(255, 201, 101, 0.65)" stroke-width="1.5"></path><path d="M1565.98 228.32L1399.46 355.15" stroke="rgba(255, 201, 101, 0.65)" stroke-width="1.5"></path><path d="M1565.98 228.32L1308.58 352.13" stroke="rgba(255, 201, 101, 0.65)" stroke-width="1.5"></path><path d="M1565.98 228.32L1460.94 -38.39" stroke="rgba(255, 201, 101, 0.65)" stroke-width="1.5"></path><path d="M1601.67 354.4L1601.67 354.4" stroke="rgba(255, 201, 101, 0.65)" stroke-width="1.5"></path><path d="M1601.67 354.4L1548.72 537.24" stroke="rgba(255, 201, 101, 0.65)" stroke-width="1.5"></path><path d="M1601.67 354.4L1399.46 355.15" stroke="rgba(255, 201, 101, 0.65)" stroke-width="1.5"></path><path d="M1601.67 354.4L1407.69 231.79" stroke="rgba(255, 201, 101, 0.65)" stroke-width="1.5"></path><path d="M1601.67 354.4L1308.58 352.13" stroke="rgba(255, 201, 101, 0.65)" stroke-width="1.5"></path><path d="M1548.72 537.24L1548.72 537.24" stroke="rgba(255, 201, 101, 0.65)" stroke-width="1.5"></path><path d="M1548.72 537.24L1590.77 654.6" stroke="rgba(255, 201, 101, 0.65)" stroke-width="1.5"></path><path d="M1548.72 537.24L1399.46 355.15" stroke="rgba(255, 201, 101, 0.65)" stroke-width="1.5"></path><path d="M1548.72 537.24L1308.58 352.13" stroke="rgba(255, 201, 101, 0.65)" stroke-width="1.5"></path><path d="M1548.72 537.24L1565.98 228.32" stroke="rgba(255, 201, 101, 0.65)" stroke-width="1.5"></path><path d="M1590.77 654.6L1590.77 654.6" stroke="rgba(255, 201, 101, 0.65)" stroke-width="1.5"></path><path d="M1590.77 654.6L1601.67 354.4" stroke="rgba(255, 201, 101, 0.65)" stroke-width="1.5"></path><path d="M1590.77 654.6L1399.46 355.15" stroke="rgba(255, 201, 101, 0.65)" stroke-width="1.5"></path><circle r="5" cx="-63.87" cy="376.78" fill="rgba(255, 201, 101, 0.65)"></circle><circle r="5" cx="-68.37" cy="532.7" fill="rgba(255, 201, 101, 0.65)"></circle><circle r="5" cx="39.72" cy="408.02" fill="rgba(255, 201, 101, 0.65)"></circle><circle r="5" cx="68.03" cy="542.13" fill="rgba(255, 201, 101, 0.65)"></circle><circle r="5" cx="87.15" cy="700.27" fill="rgba(255, 201, 101, 0.65)"></circle><circle r="5" cx="210.85" cy="384.94" fill="rgba(255, 201, 101, 0.65)"></circle><circle r="5" cx="260.44" cy="499.54" fill="rgba(255, 201, 101, 0.65)"></circle><circle r="5" cx="225.3" cy="675.82" fill="rgba(255, 201, 101, 0.65)"></circle><circle r="5" cx="393.72" cy="537.44" fill="rgba(255, 201, 101, 0.65)"></circle><circle r="5" cx="400.73" cy="677.66" fill="rgba(255, 201, 101, 0.65)"></circle><circle r="5" cx="550.27" cy="350.09" fill="rgba(255, 201, 101, 0.65)"></circle><circle r="5" cx="517.85" cy="539.54" fill="rgba(255, 201, 101, 0.65)"></circle><circle r="5" cx="491.88" cy="645.29" fill="rgba(255, 201, 101, 0.65)"></circle><circle r="5" cx="681.41" cy="222.67" fill="rgba(255, 201, 101, 0.65)"></circle><circle r="5" cx="688.74" cy="410.42" fill="rgba(255, 201, 101, 0.65)"></circle><circle r="5" cx="681.54" cy="503.31" fill="rgba(255, 201, 101, 0.65)"></circle><circle r="5" cx="654.41" cy="680.72" fill="rgba(255, 201, 101, 0.65)"></circle><circle r="5" cx="790.14" cy="203.73" fill="rgba(255, 201, 101, 0.65)"></circle><circle r="5" cx="854.19" cy="703.87" fill="rgba(255, 201, 101, 0.65)"></circle><circle r="5" cx="951.08" cy="-55.1" fill="rgba(255, 201, 101, 0.65)"></circle><circle r="5" cx="968.55" cy="82.13" fill="rgba(255, 201, 101, 0.65)"></circle><circle r="5" cx="961.63" cy="218.78" fill="rgba(255, 201, 101, 0.65)"></circle><circle r="5" cx="968.76" cy="376" fill="rgba(255, 201, 101, 0.65)"></circle><circle r="5" cx="960.22" cy="490.02" fill="rgba(255, 201, 101, 0.65)"></circle><circle r="5" cx="999.83" cy="684.11" fill="rgba(255, 201, 101, 0.65)"></circle><circle r="5" cx="1156.09" cy="-100.73" fill="rgba(255, 201, 101, 0.65)"></circle><circle r="5" cx="1115.41" cy="87.04" fill="rgba(255, 201, 101, 0.65)"></circle><circle r="5" cx="1119.6" cy="244.87" fill="rgba(255, 201, 101, 0.65)"></circle><circle r="5" cx="1131.8" cy="375.27" fill="rgba(255, 201, 101, 0.65)"></circle><circle r="5" cx="1129.49" cy="555.14" fill="rgba(255, 201, 101, 0.65)"></circle><circle r="5" cx="1140.55" cy="675.2" fill="rgba(255, 201, 101, 0.65)"></circle><circle r="5" cx="1244.2" cy="-42.56" fill="rgba(255, 201, 101, 0.65)"></circle><circle r="5" cx="1279.09" cy="67.99" fill="rgba(255, 201, 101, 0.65)"></circle><circle r="5" cx="1242" cy="243.91" fill="rgba(255, 201, 101, 0.65)"></circle><circle r="5" cx="1308.58" cy="352.13" fill="rgba(255, 201, 101, 0.65)"></circle><circle r="5" cx="1271.21" cy="694.98" fill="rgba(255, 201, 101, 0.65)"></circle><circle r="5" cx="1460.94" cy="-38.39" fill="rgba(255, 201, 101, 0.65)"></circle><circle r="5" cx="1407.69" cy="231.79" fill="rgba(255, 201, 101, 0.65)"></circle><circle r="5" cx="1399.46" cy="355.15" fill="rgba(255, 201, 101, 0.65)"></circle><circle r="5" cx="1444.19" cy="697.71" fill="rgba(255, 201, 101, 0.65)"></circle><circle r="5" cx="1578.28" cy="-109.64" fill="rgba(255, 201, 101, 0.65)"></circle><circle r="5" cx="1556.15" cy="45.74" fill="rgba(255, 201, 101, 0.65)"></circle><circle r="5" cx="1565.98" cy="228.32" fill="rgba(255, 201, 101, 0.65)"></circle><circle r="5" cx="1601.67" cy="354.4" fill="rgba(255, 201, 101, 0.65)"></circle><circle r="5" cx="1548.72" cy="537.24" fill="rgba(255, 201, 101, 0.65)"></circle><circle r="5" cx="1590.77" cy="654.6" fill="rgba(255, 201, 101, 0.65)"></circle><path d="M355.09 673.75L355.09 673.75" stroke="hsl(39, 100%, 90.7%)" stroke-width="1.5"></path><path d="M355.09 673.75L404.53 554.01" stroke="hsl(39, 100%, 90.7%)" stroke-width="1.5"></path><path d="M355.09 673.75L505.7 685.37" stroke="hsl(39, 100%, 90.7%)" stroke-width="1.5"></path><path d="M355.09 673.75L200.41 678.44" stroke="hsl(39, 100%, 90.7%)" stroke-width="1.5"></path><path d="M355.09 673.75L238.7 535.47" stroke="hsl(39, 100%, 90.7%)" stroke-width="1.5"></path><path d="M355.09 673.75L540.51 516.79" stroke="hsl(39, 100%, 90.7%)" stroke-width="1.5"></path><path d="M807 384.95L807 384.95" stroke="hsl(39, 100%, 90.7%)" stroke-width="1.5"></path><path d="M807 384.95L700.42 380.28" stroke="hsl(39, 100%, 90.7%)" stroke-width="1.5"></path><path d="M807 384.95L828.96 509.16" stroke="hsl(39, 100%, 90.7%)" stroke-width="1.5"></path><path d="M807 384.95L948.04 345.66" stroke="hsl(39, 100%, 90.7%)" stroke-width="1.5"></path><path d="M828.96 509.16L828.96 509.16" stroke="hsl(39, 100%, 90.7%)" stroke-width="1.5"></path><path d="M828.96 509.16L705.14 522.35" stroke="hsl(39, 100%, 90.7%)" stroke-width="1.5"></path><path d="M828.96 509.16L860.23 681.55" stroke="hsl(39, 100%, 90.7%)" stroke-width="1.5"></path><path d="M828.96 509.16L700.42 380.28" stroke="hsl(39, 100%, 90.7%)" stroke-width="1.5"></path><path d="M828.96 509.16L948.04 345.66" stroke="hsl(39, 100%, 90.7%)" stroke-width="1.5"></path><path d="M860.23 681.55L860.23 681.55" stroke="hsl(39, 100%, 90.7%)" stroke-width="1.5"></path><path d="M860.23 681.55L702.06 680.06" stroke="hsl(39, 100%, 90.7%)" stroke-width="1.5"></path><path d="M948.04 345.66L948.04 345.66" stroke="hsl(39, 100%, 90.7%)" stroke-width="1.5"></path><path d="M948.04 345.66L951.41 255.73" stroke="hsl(39, 100%, 90.7%)" stroke-width="1.5"></path><path d="M948.04 345.66L1087.8 219.54" stroke="hsl(39, 100%, 90.7%)" stroke-width="1.5"></path><path d="M948.04 345.66L1126.51 514.64" stroke="hsl(39, 100%, 90.7%)" stroke-width="1.5"></path><path d="M1276.29 48.71L1276.29 48.71" stroke="hsl(39, 100%, 90.7%)" stroke-width="1.5"></path><path d="M1276.29 48.71L1304.87 -57.42" stroke="hsl(39, 100%, 90.7%)" stroke-width="1.5"></path><path d="M1276.29 48.71L1420.01 -56.1" stroke="hsl(39, 100%, 90.7%)" stroke-width="1.5"></path><path d="M1276.29 48.71L1310.33 223.56" stroke="hsl(39, 100%, 90.7%)" stroke-width="1.5"></path><path d="M1276.29 48.71L1402.4 195.75" stroke="hsl(39, 100%, 90.7%)" stroke-width="1.5"></path><path d="M1276.29 48.71L1087.8 219.54" stroke="hsl(39, 100%, 90.7%)" stroke-width="1.5"></path><path d="M1276.29 48.71L1547.94 38.16" stroke="hsl(39, 100%, 90.7%)" stroke-width="1.5"></path><path d="M1420.01 -56.1L1420.01 -56.1" stroke="hsl(39, 100%, 90.7%)" stroke-width="1.5"></path><path d="M1420.01 -56.1L1304.87 -57.42" stroke="hsl(39, 100%, 90.7%)" stroke-width="1.5"></path><path d="M1420.01 -56.1L1544.1 -106.98" stroke="hsl(39, 100%, 90.7%)" stroke-width="1.5"></path><path d="M1420.01 -56.1L1547.94 38.16" stroke="hsl(39, 100%, 90.7%)" stroke-width="1.5"></path><path d="M1547.94 38.16L1547.94 38.16" stroke="hsl(39, 100%, 90.7%)" stroke-width="1.5"></path><path d="M1547.94 38.16L1544.1 -106.98" stroke="hsl(39, 100%, 90.7%)" stroke-width="1.5"></path><path d="M-102.65 515.03L-102.65 515.03" stroke="hsl(39, 100%, 90.7%)" stroke-width="1.5"></path><path d="M-102.65 515.03L-43.48 679.49" stroke="hsl(39, 100%, 90.7%)" stroke-width="1.5"></path><path d="M-102.65 515.03L104.25 542.74" stroke="hsl(39, 100%, 90.7%)" stroke-width="1.5"></path><path d="M-43.48 679.49L-43.48 679.49" stroke="hsl(39, 100%, 90.7%)" stroke-width="1.5"></path><path d="M-43.48 679.49L56.8 653.42" stroke="hsl(39, 100%, 90.7%)" stroke-width="1.5"></path><path d="M-43.48 679.49L104.25 542.74" stroke="hsl(39, 100%, 90.7%)" stroke-width="1.5"></path><path d="M104.25 542.74L104.25 542.74" stroke="hsl(39, 100%, 90.7%)" stroke-width="1.5"></path><path d="M104.25 542.74L56.8 653.42" stroke="hsl(39, 100%, 90.7%)" stroke-width="1.5"></path><path d="M104.25 542.74L238.7 535.47" stroke="hsl(39, 100%, 90.7%)" stroke-width="1.5"></path><path d="M104.25 542.74L200.41 678.44" stroke="hsl(39, 100%, 90.7%)" stroke-width="1.5"></path><path d="M56.8 653.42L56.8 653.42" stroke="hsl(39, 100%, 90.7%)" stroke-width="1.5"></path><path d="M56.8 653.42L200.41 678.44" stroke="hsl(39, 100%, 90.7%)" stroke-width="1.5"></path><path d="M56.8 653.42L-102.65 515.03" stroke="hsl(39, 100%, 90.7%)" stroke-width="1.5"></path><path d="M238.7 535.47L238.7 535.47" stroke="hsl(39, 100%, 90.7%)" stroke-width="1.5"></path><path d="M238.7 535.47L200.41 678.44" stroke="hsl(39, 100%, 90.7%)" stroke-width="1.5"></path><path d="M238.7 535.47L404.53 554.01" stroke="hsl(39, 100%, 90.7%)" stroke-width="1.5"></path><path d="M200.41 678.44L200.41 678.44" stroke="hsl(39, 100%, 90.7%)" stroke-width="1.5"></path><path d="M200.41 678.44L404.53 554.01" stroke="hsl(39, 100%, 90.7%)" stroke-width="1.5"></path><path d="M200.41 678.44L-43.48 679.49" stroke="hsl(39, 100%, 90.7%)" stroke-width="1.5"></path><path d="M404.53 554.01L404.53 554.01" stroke="hsl(39, 100%, 90.7%)" stroke-width="1.5"></path><path d="M404.53 554.01L540.51 516.79" stroke="hsl(39, 100%, 90.7%)" stroke-width="1.5"></path><path d="M540.51 516.79L540.51 516.79" stroke="hsl(39, 100%, 90.7%)" stroke-width="1.5"></path><path d="M540.51 516.79L705.14 522.35" stroke="hsl(39, 100%, 90.7%)" stroke-width="1.5"></path><path d="M540.51 516.79L505.7 685.37" stroke="hsl(39, 100%, 90.7%)" stroke-width="1.5"></path><path d="M540.51 516.79L700.42 380.28" stroke="hsl(39, 100%, 90.7%)" stroke-width="1.5"></path><path d="M540.51 516.79L702.06 680.06" stroke="hsl(39, 100%, 90.7%)" stroke-width="1.5"></path><path d="M505.7 685.37L505.7 685.37" stroke="hsl(39, 100%, 90.7%)" stroke-width="1.5"></path><path d="M700.42 380.28L700.42 380.28" stroke="hsl(39, 100%, 90.7%)" stroke-width="1.5"></path><path d="M700.42 380.28L705.14 522.35" stroke="hsl(39, 100%, 90.7%)" stroke-width="1.5"></path><path d="M705.14 522.35L705.14 522.35" stroke="hsl(39, 100%, 90.7%)" stroke-width="1.5"></path><path d="M705.14 522.35L702.06 680.06" stroke="hsl(39, 100%, 90.7%)" stroke-width="1.5"></path><path d="M702.06 680.06L702.06 680.06" stroke="hsl(39, 100%, 90.7%)" stroke-width="1.5"></path><path d="M702.06 680.06L505.7 685.37" stroke="hsl(39, 100%, 90.7%)" stroke-width="1.5"></path><path d="M702.06 680.06L828.96 509.16" stroke="hsl(39, 100%, 90.7%)" stroke-width="1.5"></path><path d="M702.06 680.06L700.42 380.28" stroke="hsl(39, 100%, 90.7%)" stroke-width="1.5"></path><path d="M951.41 255.73L951.41 255.73" stroke="hsl(39, 100%, 90.7%)" stroke-width="1.5"></path><path d="M951.41 255.73L1087.8 219.54" stroke="hsl(39, 100%, 90.7%)" stroke-width="1.5"></path><path d="M951.41 255.73L807 384.95" stroke="hsl(39, 100%, 90.7%)" stroke-width="1.5"></path><path d="M1087.8 219.54L1087.8 219.54" stroke="hsl(39, 100%, 90.7%)" stroke-width="1.5"></path><path d="M1126.51 514.64L1126.51 514.64" stroke="hsl(39, 100%, 90.7%)" stroke-width="1.5"></path><path d="M1126.51 514.64L1140.05 675.69" stroke="hsl(39, 100%, 90.7%)" stroke-width="1.5"></path><path d="M1126.51 514.64L1238.23 652.53" stroke="hsl(39, 100%, 90.7%)" stroke-width="1.5"></path><path d="M1126.51 514.64L1292.31 355.66" stroke="hsl(39, 100%, 90.7%)" stroke-width="1.5"></path><path d="M1126.51 514.64L828.96 509.16" stroke="hsl(39, 100%, 90.7%)" stroke-width="1.5"></path><path d="M1126.51 514.64L1087.8 219.54" stroke="hsl(39, 100%, 90.7%)" stroke-width="1.5"></path><path d="M1140.05 675.69L1140.05 675.69" stroke="hsl(39, 100%, 90.7%)" stroke-width="1.5"></path><path d="M1140.05 675.69L1238.23 652.53" stroke="hsl(39, 100%, 90.7%)" stroke-width="1.5"></path><path d="M1304.87 -57.42L1304.87 -57.42" stroke="hsl(39, 100%, 90.7%)" stroke-width="1.5"></path><path d="M1304.87 -57.42L1544.1 -106.98" stroke="hsl(39, 100%, 90.7%)" stroke-width="1.5"></path><path d="M1304.87 -57.42L1547.94 38.16" stroke="hsl(39, 100%, 90.7%)" stroke-width="1.5"></path><path d="M1310.33 223.56L1310.33 223.56" stroke="hsl(39, 100%, 90.7%)" stroke-width="1.5"></path><path d="M1310.33 223.56L1402.4 195.75" stroke="hsl(39, 100%, 90.7%)" stroke-width="1.5"></path><path d="M1310.33 223.56L1292.31 355.66" stroke="hsl(39, 100%, 90.7%)" stroke-width="1.5"></path><path d="M1292.31 355.66L1292.31 355.66" stroke="hsl(39, 100%, 90.7%)" stroke-width="1.5"></path><path d="M1292.31 355.66L1436.83 341.97" stroke="hsl(39, 100%, 90.7%)" stroke-width="1.5"></path><path d="M1238.23 652.53L1238.23 652.53" stroke="hsl(39, 100%, 90.7%)" stroke-width="1.5"></path><path d="M1238.23 652.53L1455.99 660.94" stroke="hsl(39, 100%, 90.7%)" stroke-width="1.5"></path><path d="M1238.23 652.53L1454.58 545.36" stroke="hsl(39, 100%, 90.7%)" stroke-width="1.5"></path><path d="M1402.4 195.75L1402.4 195.75" stroke="hsl(39, 100%, 90.7%)" stroke-width="1.5"></path><path d="M1402.4 195.75L1538.02 260.15" stroke="hsl(39, 100%, 90.7%)" stroke-width="1.5"></path><path d="M1402.4 195.75L1436.83 341.97" stroke="hsl(39, 100%, 90.7%)" stroke-width="1.5"></path><path d="M1436.83 341.97L1436.83 341.97" stroke="hsl(39, 100%, 90.7%)" stroke-width="1.5"></path><path d="M1436.83 341.97L1538.02 260.15" stroke="hsl(39, 100%, 90.7%)" stroke-width="1.5"></path><path d="M1436.83 341.97L1586.83 342.07" stroke="hsl(39, 100%, 90.7%)" stroke-width="1.5"></path><path d="M1454.58 545.36L1454.58 545.36" stroke="hsl(39, 100%, 90.7%)" stroke-width="1.5"></path><path d="M1454.58 545.36L1455.99 660.94" stroke="hsl(39, 100%, 90.7%)" stroke-width="1.5"></path><path d="M1454.58 545.36L1592.3 678.02" stroke="hsl(39, 100%, 90.7%)" stroke-width="1.5"></path><path d="M1454.58 545.36L1436.83 341.97" stroke="hsl(39, 100%, 90.7%)" stroke-width="1.5"></path><path d="M1454.58 545.36L1586.83 342.07" stroke="hsl(39, 100%, 90.7%)" stroke-width="1.5"></path><path d="M1454.58 545.36L1292.31 355.66" stroke="hsl(39, 100%, 90.7%)" stroke-width="1.5"></path><path d="M1455.99 660.94L1455.99 660.94" stroke="hsl(39, 100%, 90.7%)" stroke-width="1.5"></path><path d="M1455.99 660.94L1592.3 678.02" stroke="hsl(39, 100%, 90.7%)" stroke-width="1.5"></path><path d="M1455.99 660.94L1140.05 675.69" stroke="hsl(39, 100%, 90.7%)" stroke-width="1.5"></path><path d="M1544.1 -106.98L1544.1 -106.98" stroke="hsl(39, 100%, 90.7%)" stroke-width="1.5"></path><path d="M1544.1 -106.98L1276.29 48.71" stroke="hsl(39, 100%, 90.7%)" stroke-width="1.5"></path><path d="M1544.1 -106.98L1402.4 195.75" stroke="hsl(39, 100%, 90.7%)" stroke-width="1.5"></path><path d="M1538.02 260.15L1538.02 260.15" stroke="hsl(39, 100%, 90.7%)" stroke-width="1.5"></path><path d="M1538.02 260.15L1586.83 342.07" stroke="hsl(39, 100%, 90.7%)" stroke-width="1.5"></path><path d="M1538.02 260.15L1547.94 38.16" stroke="hsl(39, 100%, 90.7%)" stroke-width="1.5"></path><path d="M1538.02 260.15L1310.33 223.56" stroke="hsl(39, 100%, 90.7%)" stroke-width="1.5"></path><path d="M1586.83 342.07L1586.83 342.07" stroke="hsl(39, 100%, 90.7%)" stroke-width="1.5"></path><path d="M1592.3 678.02L1592.3 678.02" stroke="hsl(39, 100%, 90.7%)" stroke-width="1.5"></path><path d="M1592.3 678.02L1586.83 342.07" stroke="hsl(39, 100%, 90.7%)" stroke-width="1.5"></path><path d="M1592.3 678.02L1238.23 652.53" stroke="hsl(39, 100%, 90.7%)" stroke-width="1.5"></path><path d="M1592.3 678.02L1436.83 341.97" stroke="hsl(39, 100%, 90.7%)" stroke-width="1.5"></path><path d="M1592.3 678.02L1538.02 260.15" stroke="hsl(39, 100%, 90.7%)" stroke-width="1.5"></path><circle r="25" cx="355.09" cy="673.75" fill="url(#SvgjsRadialGradient1039)"></circle><circle r="25" cx="807" cy="384.95" fill="url(#SvgjsRadialGradient1039)"></circle><circle r="25" cx="828.96" cy="509.16" fill="url(#SvgjsRadialGradient1039)"></circle><circle r="25" cx="860.23" cy="681.55" fill="url(#SvgjsRadialGradient1039)"></circle><circle r="25" cx="948.04" cy="345.66" fill="url(#SvgjsRadialGradient1039)"></circle><circle r="25" cx="1276.29" cy="48.71" fill="url(#SvgjsRadialGradient1039)"></circle><circle r="25" cx="1420.01" cy="-56.1" fill="url(#SvgjsRadialGradient1039)"></circle><circle r="25" cx="1547.94" cy="38.16" fill="url(#SvgjsRadialGradient1039)"></circle><circle r="5" cx="-102.65" cy="515.03" fill="#ffe4b2"></circle><circle r="5" cx="-43.48" cy="679.49" fill="#ffe4b2"></circle><circle r="5" cx="104.25" cy="542.74" fill="#ffe4b2"></circle><circle r="5" cx="56.8" cy="653.42" fill="#ffe4b2"></circle><circle r="5" cx="238.7" cy="535.47" fill="#ffe4b2"></circle><circle r="5" cx="200.41" cy="678.44" fill="#ffe4b2"></circle><circle r="5" cx="404.53" cy="554.01" fill="#ffe4b2"></circle><circle r="5" cx="540.51" cy="516.79" fill="#ffe4b2"></circle><circle r="5" cx="505.7" cy="685.37" fill="#ffe4b2"></circle><circle r="5" cx="700.42" cy="380.28" fill="#ffe4b2"></circle><circle r="5" cx="705.14" cy="522.35" fill="#ffe4b2"></circle><circle r="5" cx="702.06" cy="680.06" fill="#ffe4b2"></circle><circle r="5" cx="951.41" cy="255.73" fill="#ffe4b2"></circle><circle r="5" cx="1087.8" cy="219.54" fill="#ffe4b2"></circle><circle r="5" cx="1126.51" cy="514.64" fill="#ffe4b2"></circle><circle r="5" cx="1140.05" cy="675.69" fill="#ffe4b2"></circle><circle r="5" cx="1304.87" cy="-57.42" fill="#ffe4b2"></circle><circle r="5" cx="1310.33" cy="223.56" fill="#ffe4b2"></circle><circle r="5" cx="1292.31" cy="355.66" fill="#ffe4b2"></circle><circle r="5" cx="1238.23" cy="652.53" fill="#ffe4b2"></circle><circle r="5" cx="1402.4" cy="195.75" fill="#ffe4b2"></circle><circle r="5" cx="1436.83" cy="341.97" fill="#ffe4b2"></circle><circle r="5" cx="1454.58" cy="545.36" fill="#ffe4b2"></circle><circle r="5" cx="1455.99" cy="660.94" fill="#ffe4b2"></circle><circle r="5" cx="1544.1" cy="-106.98" fill="#ffe4b2"></circle><circle r="5" cx="1538.02" cy="260.15" fill="#ffe4b2"></circle><circle r="5" cx="1586.83" cy="342.07" fill="#ffe4b2"></circle><circle r="5" cx="1592.3" cy="678.02" fill="#ffe4b2"></circle></g><defs><mask id="SvgjsMask1038"><rect width="1440" height="560" fill="#ffffff"></rect></mask><radialGradient id="SvgjsRadialGradient1039"><stop stop-color="#ffffff" offset="0.1"></stop><stop stop-color="rgba(255, 201, 101, 1)" offset="0.2"></stop><stop stop-color="rgba(255, 201, 101, 0)" offset="1"></stop></radialGradient></defs></svg>